<?xml version="1.0" encoding="UTF-8"?><svg id="Main_Graphic" xmlns="http://www.w3.org/2000/svg" viewBox="0 0 378.02 378.58"><defs><style>.cls-1{fill:#009245;}.cls-2{opacity:.8;}.cls-3{opacity:.7;}</style></defs><g id="GreenD"><g class="cls-3"><path class="cls-1" d="m256.21,32.2c25.02,22.46,41.84,51.84,49.53,86.42,8.84,38.74.8,85.15-23.34,116.93-4.33,10.39-10.69,20.13-19.13,28.57l62.36,62.36c69.02-69.02,69.02-181.31,0-250.33-20.51-20.51-43.53-35.63-69.41-43.95Z"/><path d="m253.57,30.68l2.84.91c26.96,8.67,49.53,23.98,69.66,44.11,69.26,69.26,69.26,181.96,0,251.22l-.45.45-63.25-63.25.45-.45c8.17-8.17,14.56-17.71,19-28.36l.08-.14c23.26-30.62,32.37-76.31,23.23-116.4-7.35-33.09-23.08-62.52-49.33-86.09l-2.22-1.99Zm72.05,294.89c68.31-68.8,68.17-180.36-.45-248.98-19.28-19.28-40.71-34.16-66.33-42.86,25.2,23.36,40.31,52.33,47.52,84.75,9.22,40.41.03,86.48-23.41,117.38-4.42,10.58-10.74,20.08-18.79,28.25l61.46,61.46Z"/><path class="cls-1" d="m145.98,369.69c-25.02-22.46-43.15-51.13-50.84-85.72-8.84-38.74-.8-85.15,23.34-116.93,4.33-10.39,11.19-20.64,19.63-29.08L1.16,1.15s5.09,256.28,74.1,325.29c20.51,20.51,44.84,34.92,70.72,43.24Z"/><path d="m.01,0l1.1,1.1,137.4,137.26.05.05c-8.25,8.25-15.17,18.51-19.49,28.87l-.08.14c-23.25,30.61-32.37,76.3-23.23,116.4,7.35,33.08,24.39,61.81,50.64,85.38l2.22,1.99-2.84-.91c-26.96-8.67-50.84-23.27-70.97-43.4-35.78-35.78-54.07-122.47-63.11-188.89C1.91,66.1.01,1.93,0,1.28V0Zm137.2,137.96L1.84,2.72c.6,21.73,8.65,258.05,73.88,323.27,19.28,19.28,42.02,33.45,67.64,42.15-25.2-23.36-41.62-51.62-48.83-84.04-9.22-40.42-.03-86.49,23.4-117.39,4.31-10.3,11.14-20.49,19.29-28.76Z"/><g class="cls-3"><path class="cls-1" d="m138.28,264.75c-26.06-26.06-33.21-65.46-19.74-97.66-24.16,31.76-32.61,77.72-23.4,117.46,7.97,34.39,26.12,62.85,51.02,85.2,61.01,19.47,130.96,5.23,179.46-43.28l-62.36-62.36c-34.63,34.63-90.53,35.09-124.99.63Z"/><path d="m121.05,162.75l-1.92,4.59c-13.65,32.62-5.77,71.59,19.6,96.96,34.04,34.04,89.7,33.76,124.09-.63l.45-.45,63.25,63.25-.45.45c-23.42,23.42-53.06,39.67-85.7,47.01-31.51,7.08-63.7,6.23-94.41-3.57l-.23-.13c-25.83-23.18-43.53-52.35-51.21-85.52-9.39-40.54-.16-86.86,23.52-117.99l3.01-3.96Zm142.22,102.27c-34.91,34.44-91.05,34.57-125.44.18-24.57-24.57-32.96-61.7-21.63-93.81-21.35,30.73-29.38,74.5-20.45,113.03,7.61,32.87,25.14,61.79,50.72,84.78,30.46,9.7,62.37,10.52,93.61,3.5,32.21-7.23,61.46-23.21,84.63-46.21l-61.46-61.46Z"/></g><g class="cls-2"><path class="cls-1" d="m264.03,137.64c26.19,26.19,31.79,65.67,18.37,97.91,24.14-31.78,32.94-79.05,24.11-117.79-7.68-34.58-25.82-63.26-50.84-85.72C194.46,12.36,1.19,1.18,1.19,1.18l136.88,136.83c34.63-34.63,91.33-35,125.97-.37Z"/><path d="m.01,0l1.43.08c1.93.11,193.83,11.88,254.42,31.36l.23.13c26.45,23.74,43.62,52.7,51.03,86.05,9.07,39.75-.66,87.3-24.22,118.31l-3,3.95,1.91-4.57c13.89-33.36,6.56-72.42-18.23-97.22-34.38-34.38-90.49-34.21-125.07.37h0S.01,0,.01,0Zm255.34,32.6C197.79,14.17,21.91,3.08,2.82,1.91l135.24,135.2c35.12-34.63,91.69-34.65,126.42.08,24.03,24.03,31.89,61.27,20.26,94.04,21.27-30.72,29.76-75.57,21.15-113.34-7.34-33.06-24.35-61.75-50.54-85.3Z"/></g></g></g></svg>