<?xml version="1.0" encoding="UTF-8"?><svg id="Main_Graphic" xmlns="http://www.w3.org/2000/svg" viewBox="0 0 378.58 378.02"><defs><style>.cls-1{fill:#29aae2;}.cls-2{opacity:.8;}.cls-3{opacity:.7;}</style></defs><g id="Blue"><g class="cls-3"><path class="cls-1" d="m346.38,256.21c-22.46,25.02-51.84,41.84-86.42,49.53-38.74,8.84-85.15.8-116.93-23.34-10.39-4.33-20.13-10.69-28.57-19.13l-62.36,62.36c69.02,69.02,181.31,69.02,250.33,0,20.51-20.51,35.63-43.53,43.95-69.41Z"/><path d="m347.9,253.57l-.91,2.84c-8.67,26.96-23.98,49.53-44.11,69.66-69.26,69.26-181.96,69.26-251.22,0l-.45-.45,63.25-63.25.45.45c8.17,8.17,17.71,14.56,28.36,19l.14.08c30.62,23.26,76.31,32.37,116.4,23.23,33.09-7.35,62.52-23.08,86.09-49.33l1.99-2.22ZM53.01,325.62c68.8,68.31,180.36,68.17,248.98-.45,19.28-19.28,34.16-40.71,42.86-66.33-23.36,25.2-52.33,40.31-84.75,47.52-40.41,9.22-86.48.03-117.38-23.41-10.58-4.42-20.08-10.74-28.25-18.79l-61.46,61.46Z"/><path class="cls-1" d="m8.9,145.98c22.46-25.02,51.13-43.15,85.72-50.84,38.74-8.84,85.15-.8,116.93,23.34,10.39,4.33,20.64,11.19,29.08,19.63L377.43,1.16S121.15,6.25,52.14,75.27c-20.51,20.51-34.92,44.84-43.24,70.72Z"/><path d="m378.58.01l-1.1,1.1-137.26,137.4-.05.05c-8.25-8.25-18.51-15.17-28.87-19.49l-.14-.08c-30.61-23.25-76.3-32.37-116.4-23.23-33.08,7.35-61.81,24.39-85.38,50.64l-1.99,2.22.91-2.84c8.67-26.96,23.27-50.84,43.4-70.97C87.47,39.04,174.16,20.75,240.58,11.7,312.48,1.91,376.66.01,377.3,0h1.28Zm-137.96,137.2L375.86,1.84c-21.73.6-258.05,8.65-323.27,73.88-19.28,19.28-33.45,42.02-42.15,67.64,23.36-25.2,51.62-41.62,84.04-48.83,40.42-9.22,86.49-.03,117.39,23.4,10.3,4.31,20.49,11.14,28.76,19.29Z"/><g class="cls-3"><path class="cls-1" d="m113.83,138.28c26.06-26.06,65.46-33.21,97.66-19.74-31.76-24.16-77.72-32.61-117.46-23.4-34.39,7.97-62.85,26.12-85.2,51.02-19.47,61.01-5.23,130.96,43.28,179.46l62.36-62.36c-34.63-34.63-35.09-90.53-.63-124.99Z"/><path d="m215.84,121.05l-4.59-1.92c-32.62-13.65-71.59-5.77-96.96,19.6-34.04,34.04-33.76,89.7.63,124.09l.45.45-63.25,63.25-.45-.45c-23.42-23.42-39.67-53.06-47.01-85.7-7.08-31.51-6.23-63.7,3.57-94.41l.13-.23c23.18-25.83,52.35-43.53,85.52-51.21,40.54-9.39,86.86-.16,117.99,23.52l3.96,3.01Zm-102.27,142.22c-34.44-34.91-34.57-91.05-.18-125.44,24.57-24.57,61.7-32.96,93.81-21.63-30.73-21.35-74.5-29.38-113.03-20.45-32.87,7.61-61.79,25.14-84.78,50.72C-.3,176.94-1.13,208.85,5.9,240.09c7.23,32.21,23.21,61.46,46.21,84.63l61.46-61.46Z"/></g><g class="cls-2"><path class="cls-1" d="m240.94,264.03c-26.19,26.19-65.67,31.79-97.91,18.37,31.78,24.14,79.05,32.94,117.79,24.11,34.58-7.68,63.26-25.82,85.72-50.84,19.68-61.21,30.86-254.48,30.86-254.48l-136.83,136.88c34.63,34.63,35,91.33.37,125.97Z"/><path d="m378.58.01l-.08,1.43c-.11,1.93-11.88,193.83-31.36,254.42l-.13.23c-23.74,26.45-52.7,43.62-86.05,51.03-39.75,9.07-87.3-.66-118.31-24.22l-3.95-3,4.57,1.91c33.36,13.89,72.42,6.56,97.22-18.23,34.38-34.38,34.21-90.49-.37-125.07h0S378.58.01,378.58.01Zm-32.6,255.34c18.43-57.56,29.53-233.44,30.69-252.52l-135.2,135.24c34.63,35.12,34.65,91.69-.08,126.42-24.03,24.03-61.27,31.89-94.04,20.26,30.72,21.27,75.57,29.76,113.34,21.15,33.06-7.34,61.75-24.35,85.3-50.54Z"/></g></g></g></svg>