<?xml version="1.0" encoding="UTF-8"?><svg id="Main_Graphic" xmlns="http://www.w3.org/2000/svg" viewBox="0 0 785.54 785.54"><defs><style>.cls-1{fill:#c0282e;}.cls-2{opacity:.55;}.cls-3{opacity:.8;}.cls-4{opacity:.7;}</style></defs><g id="MIddle" class="cls-2"><g class="cls-4"><path class="cls-1" d="m258.03,219.3c-1.54-28.56,6.02-56.35,22.19-81.77,17.99-28.62,50.74-51.7,84.37-56.29,8.85-3.65,18.54-5.67,28.69-5.67V.54c-83.03,0-150.57,67.55-150.57,150.57,0,24.67,4.75,47.61,15.31,68.18Z"/><path d="m258.7,221.8l-1.16-2.26c-11.01-21.43-15.37-44.21-15.37-68.43C242.18,67.79,309.96,0,393.29,0h.54v76.09h-.54c-9.83,0-19.41,1.9-28.49,5.63l-.14.04c-32.4,4.43-65.37,26.42-83.99,56.04-15.48,24.33-23.72,51.49-22.11,81.46l.14,2.53ZM392.75,1.08c-82.48.3-149.49,67.48-149.49,150.03,0,23.19,3.94,45.03,14.12,65.68-1.11-29.21,7.23-55.73,22.39-79.56,18.76-29.85,52-52.03,84.68-56.53,9.03-3.7,18.54-5.62,28.3-5.69V1.08Z"/><path class="cls-1" d="m527.33,82.6c1.54,28.56-4.8,56.71-20.98,82.14-17.99,28.62-50.74,51.7-84.37,56.29-8.85,3.65-19.14,5.68-29.3,5.68l.09,164.67s151.09-157.21,151.09-240.24c0-24.67-5.96-47.98-16.53-68.55Z"/><path d="m392.77,392.77v-1.33s-.08-165.21-.08-165.21v-.06c9.92,0,20.26-2.01,29.09-5.64l.14-.04c32.4-4.43,65.37-26.42,83.99-56.05,15.48-24.32,22.51-51.85,20.9-81.82l-.14-2.53,1.16,2.26c11.01,21.43,16.58,44.58,16.58,68.79,0,43.04-41.14,106.18-75.65,151.58-37.36,49.14-74.82,88.88-75.2,89.27l-.78.76Zm.46-165.51l.08,162.78c12.71-13.43,150.01-160.42,150.01-238.88,0-23.19-5.16-45.4-15.33-66.04,1.11,29.21-6.01,56.09-21.18,79.92-18.77,29.86-52,52.04-84.68,56.53-8.79,3.61-19.03,5.63-28.9,5.7Z"/><g class="cls-4"><path class="cls-1" d="m468.84,150.35c0,31.35-19.4,59.35-46.87,70.61,33.63-4.57,66.36-27.13,84.73-56.58,15.89-25.47,22.1-53.52,20.56-81.93C502.28,34.04,451.64.54,393.29.54v75.01c41.66,0,75.56,33.35,75.56,74.8Z"/><path d="m417.86,222.07l3.91-1.6c27.83-11.42,46.53-39.59,46.53-70.11,0-40.95-33.65-74.26-75.02-74.26h-.54V0h.54c28.17,0,55.78,8.05,79.82,23.27,23.21,14.7,42.06,34.57,54.64,58.93l.06.22c1.59,29.48-5.31,57.67-20.64,82.25-18.73,30.04-52.15,52.34-85.12,56.83l-4.19.57Zm-24.03-147.06c41.71.29,75.56,33.98,75.56,75.34,0,29.55-17.29,56.94-43.42,69.43,31.32-5.64,62.48-27.14,80.28-55.69,15.2-24.35,22.04-52.29,20.49-81.5-12.49-24.15-31.19-43.84-54.2-58.41-23.72-15.02-50.93-23-78.7-23.11v73.93Z"/></g><g class="cls-3"><path class="cls-1" d="m316.75,151.17c0-31.51,20.37-58.62,47.85-69.94-33.63,4.6-67.37,27.73-85.35,56.35-16.18,25.42-22.52,53.58-20.98,82.14,24.98,48.66,134.51,171.63,134.51,171.63l-.03-164.63c-41.66,0-75.99-33.88-75.99-75.54Z"/><path d="m392.77,392.77l-.81-.91c-1.09-1.23-109.44-123.74-134.17-171.9l-.06-.22c-1.63-30.19,5.46-57.93,21.07-82.46,18.46-29.36,52.91-52.11,85.74-56.6l4.18-.57-3.9,1.6c-28.42,11.71-47.51,39.61-47.51,69.44,0,41.36,33.85,75,75.45,75h0s.03,166.59.03,166.59Zm-133.97-173.19c23.54,45.71,122.65,158.17,133.43,170.35l-.03-162.67c-41.95-.29-75.99-34.31-75.99-76.09,0-28.91,17.67-56.04,44.38-68.75-31.27,5.68-63.36,27.55-80.89,55.45-15.47,24.3-22.5,51.79-20.9,81.71Z"/></g></g><g class="cls-4"><path class="cls-1" d="m527.51,566.24c1.54,28.56-6.02,56.35-22.19,81.77-17.99,28.62-50.74,51.7-84.37,56.29-8.85,3.65-18.54,5.67-28.69,5.67v75.01c83.03,0,150.57-67.55,150.57-150.57,0-24.67-4.75-47.61-15.31-68.18Z"/><path d="m526.83,563.74l1.16,2.26c11.01,21.43,15.37,44.21,15.37,68.43,0,83.32-67.79,151.11-151.11,151.11h-.54v-76.09h.54c9.83,0,19.41-1.9,28.49-5.63l.14-.04c32.4-4.43,65.37-26.42,83.99-56.04,15.48-24.33,23.72-51.49,22.11-81.46l-.14-2.53Zm-134.04,220.71c82.48-.3,149.49-67.48,149.49-150.03,0-23.19-3.94-45.03-14.12-65.68,1.11,29.21-7.23,55.73-22.39,79.56-18.76,29.85-52,52.03-84.68,56.53-9.03,3.7-18.54,5.62-28.3,5.69v73.93Z"/><path class="cls-1" d="m258.21,702.94c-1.54-28.56,4.8-56.71,20.98-82.14,17.99-28.62,50.74-51.7,84.37-56.29,8.85-3.65,19.14-5.68,29.3-5.68l-.09-164.67s-151.09,157.21-151.09,240.24c0,24.67,5.96,47.98,16.53,68.55Z"/><path d="m392.77,392.77v1.33s.08,165.21.08,165.21v.06c-9.92,0-20.26,2.01-29.09,5.64l-.14.04c-32.4,4.43-65.37,26.42-83.99,56.05-15.48,24.32-22.51,51.85-20.9,81.82l.14,2.53-1.16-2.26c-11.01-21.43-16.58-44.58-16.58-68.79,0-43.04,41.14-106.18,75.65-151.58,37.36-49.14,74.82-88.88,75.2-89.27l.78-.76Zm-.46,165.51l-.08-162.78c-12.71,13.43-150.01,160.42-150.01,238.88,0,23.19,5.16,45.4,15.33,66.04-1.11-29.21,6.01-56.09,21.18-79.92,18.77-29.86,52-52.04,84.68-56.53,8.79-3.61,19.03-5.63,28.9-5.7Z"/><g class="cls-4"><path class="cls-1" d="m316.69,635.18c0-31.35,19.4-59.35,46.87-70.61-33.63,4.57-66.36,27.13-84.73,56.58-15.89,25.47-22.1,53.52-20.56,81.93,24.98,48.41,75.63,81.91,133.98,81.91v-75.01c-41.66,0-75.56-33.35-75.56-74.8Z"/><path d="m367.68,563.46l-3.91,1.6c-27.83,11.42-46.53,39.59-46.53,70.11,0,40.95,33.65,74.26,75.02,74.26h.54v76.09h-.54c-28.17,0-55.78-8.05-79.82-23.27-23.21-14.7-42.06-34.57-54.64-58.93l-.06-.22c-1.59-29.48,5.31-57.67,20.64-82.25,18.73-30.04,52.15-52.34,85.12-56.83l4.19-.57Zm24.03,147.06c-41.71-.29-75.56-33.98-75.56-75.34,0-29.55,17.29-56.94,43.42-69.43-31.32,5.64-62.48,27.14-80.28,55.69-15.2,24.35-22.04,52.29-20.49,81.5,12.49,24.15,31.19,43.84,54.2,58.41,23.72,15.02,50.93,23,78.7,23.11v-73.93Z"/></g><g class="cls-3"><path class="cls-1" d="m468.79,634.37c0,31.51-20.37,58.62-47.85,69.94,33.63-4.6,67.37-27.73,85.35-56.35,16.18-25.42,22.52-53.58,20.98-82.14-24.98-48.66-134.51-171.63-134.51-171.63l.03,164.63c41.66,0,75.99,33.88,75.99,75.54Z"/><path d="m392.77,392.77l.81.91c1.09,1.23,109.44,123.74,134.17,171.9l.06.22c1.63,30.19-5.46,57.93-21.07,82.46-18.46,29.36-52.91,52.11-85.74,56.6l-4.18.57,3.9-1.6c28.42-11.71,47.51-39.61,47.51-69.44,0-41.36-33.85-75-75.45-75h0s-.03-166.59-.03-166.59Zm133.97,173.19c-23.54-45.71-122.65-158.17-133.43-170.35l.03,162.67c41.95.29,75.99,34.31,75.99,76.09,0,28.91-17.67,56.04-44.38,68.75,31.27-5.68,63.36-27.55,80.89-55.45,15.47-24.3,22.5-51.79,20.9-81.71Z"/></g></g><g class="cls-4"><path class="cls-1" d="m566.24,258.03c28.56-1.54,56.35,6.02,81.77,22.19,28.62,17.99,51.7,50.74,56.29,84.37,3.65,8.85,5.67,18.54,5.67,28.69h75.01c0-83.03-67.55-150.57-150.57-150.57-24.67,0-47.61,4.75-68.18,15.31Z"/><path d="m563.74,258.7l2.26-1.16c21.43-11.01,44.21-15.37,68.43-15.37,83.32,0,151.11,67.79,151.11,151.11v.54h-76.09v-.54c0-9.83-1.9-19.41-5.63-28.49l-.04-.14c-4.43-32.4-26.42-65.37-56.04-83.99-24.33-15.48-51.49-23.72-81.46-22.11l-2.53.14Zm220.71,134.04c-.3-82.48-67.48-149.49-150.03-149.49-23.19,0-45.03,3.94-65.68,14.12,29.21-1.11,55.73,7.23,79.56,22.39,29.85,18.76,52.03,52,56.53,84.68,3.7,9.03,5.62,18.54,5.69,28.3h73.93Z"/><path class="cls-1" d="m702.94,527.33c-28.56,1.54-56.71-4.8-82.14-20.98-28.62-17.99-51.7-50.74-56.29-84.37-3.65-8.85-5.68-19.14-5.68-29.3l-164.67.09s157.21,151.09,240.24,151.09c24.67,0,47.98-5.96,68.55-16.53Z"/><path d="m392.77,392.77h1.33s165.21-.08,165.21-.08h.06c0,9.92,2.01,20.26,5.64,29.09l.04.14c4.43,32.4,26.42,65.37,56.05,83.99,24.32,15.48,51.85,22.51,81.82,20.9l2.53-.14-2.26,1.16c-21.43,11.01-44.58,16.58-68.79,16.58-43.04,0-106.18-41.14-151.58-75.65-49.14-37.36-88.88-74.82-89.27-75.2l-.76-.78Zm165.51.46l-162.78.08c13.43,12.71,160.42,150.01,238.88,150.01,23.19,0,45.4-5.16,66.04-15.33-29.21,1.11-56.09-6.01-79.92-21.18-29.86-18.77-52.04-52-56.53-84.68-3.61-8.79-5.63-19.03-5.7-28.9Z"/><g class="cls-4"><path class="cls-1" d="m635.18,468.84c-31.35,0-59.35-19.4-70.61-46.87,4.57,33.63,27.13,66.36,56.58,84.73,25.47,15.89,53.52,22.1,81.93,20.56,48.41-24.98,81.91-75.63,81.91-133.98h-75.01c0,41.66-33.35,75.56-74.8,75.56Z"/><path d="m563.46,417.86l1.6,3.91c11.42,27.83,39.59,46.53,70.11,46.53,40.95,0,74.26-33.65,74.26-75.02v-.54h76.09v.54c0,28.17-8.05,55.78-23.27,79.82-14.7,23.21-34.57,42.06-58.93,54.64l-.22.06c-29.48,1.59-57.67-5.31-82.25-20.64-30.04-18.73-52.34-52.15-56.83-85.12l-.57-4.19Zm147.06-24.03c-.29,41.71-33.98,75.56-75.34,75.56-29.55,0-56.94-17.29-69.43-43.42,5.64,31.32,27.14,62.48,55.69,80.28,24.35,15.2,52.29,22.04,81.5,20.49,24.15-12.49,43.84-31.19,58.41-54.2,15.02-23.72,23-50.93,23.11-78.7h-73.93Z"/></g><g class="cls-3"><path class="cls-1" d="m634.37,316.75c31.51,0,58.62,20.37,69.94,47.85-4.6-33.63-27.73-67.37-56.35-85.35-25.42-16.18-53.58-22.52-82.14-20.98-48.66,24.98-171.63,134.51-171.63,134.51l164.63-.03c0-41.66,33.88-75.99,75.54-75.99Z"/><path d="m392.77,392.77l.91-.81c1.23-1.09,123.74-109.44,171.9-134.17l.22-.06c30.19-1.63,57.93,5.46,82.46,21.07,29.36,18.46,52.11,52.91,56.6,85.74l.57,4.18-1.6-3.9c-11.71-28.42-39.61-47.51-69.44-47.51-41.36,0-75,33.85-75,75.45h0s-166.59.03-166.59.03Zm173.19-133.97c-45.71,23.54-158.17,122.65-170.35,133.43l162.67-.03c.29-41.95,34.31-75.99,76.09-75.99,28.91,0,56.04,17.67,68.75,44.38-5.68-31.27-27.55-63.36-55.45-80.89-24.3-15.47-51.79-22.5-81.71-20.9Z"/></g></g><g class="cls-4"><path class="cls-1" d="m219.3,527.51c-28.56,1.54-56.35-6.02-81.77-22.19-28.62-17.99-51.7-50.74-56.29-84.37-3.65-8.85-5.67-18.54-5.67-28.69H.54c0,83.03,67.55,150.57,150.57,150.57,24.67,0,47.61-4.75,68.18-15.31Z"/><path d="m221.8,526.83l-2.26,1.16c-21.43,11.01-44.21,15.37-68.43,15.37C67.79,543.36,0,475.57,0,392.25v-.54h76.09v.54c0,9.83,1.9,19.41,5.63,28.49l.04.14c4.43,32.4,26.42,65.37,56.04,83.99,24.33,15.48,51.49,23.72,81.46,22.11l2.53-.14ZM1.08,392.79c.3,82.48,67.48,149.49,150.03,149.49,23.19,0,45.03-3.94,65.68-14.12-29.21,1.11-55.73-7.23-79.56-22.39-29.85-18.76-52.03-52-56.53-84.68-3.7-9.03-5.62-18.54-5.69-28.3H1.08Z"/><path class="cls-1" d="m82.6,258.21c28.56-1.54,56.71,4.8,82.14,20.98,28.62,17.99,51.7,50.74,56.29,84.37,3.65,8.85,5.68,19.14,5.68,29.3l164.67-.09s-157.21-151.09-240.24-151.09c-24.67,0-47.98,5.96-68.55,16.53Z"/><path d="m392.77,392.77h-1.33s-165.21.08-165.21.08h-.06c0-9.92-2.01-20.26-5.64-29.09l-.04-.14c-4.43-32.4-26.42-65.37-56.05-83.99-24.32-15.48-51.85-22.51-81.82-20.9l-2.53.14,2.26-1.16c21.43-11.01,44.58-16.58,68.79-16.58,43.04,0,106.18,41.14,151.58,75.65,49.14,37.36,88.88,74.82,89.27,75.2l.76.78Zm-165.51-.46l162.78-.08c-13.43-12.71-160.42-150.01-238.88-150.01-23.19,0-45.4,5.16-66.04,15.33,29.21-1.11,56.09,6.01,79.92,21.18,29.86,18.77,52.04,52,56.53,84.68,3.61,8.79,5.63,19.03,5.7,28.9Z"/><g class="cls-4"><path class="cls-1" d="m150.35,316.69c31.35,0,59.35,19.4,70.61,46.87-4.57-33.63-27.13-66.36-56.58-84.73-25.47-15.89-53.52-22.1-81.93-20.56C34.04,283.25.54,333.9.54,392.25h75.01c0-41.66,33.35-75.56,74.8-75.56Z"/><path d="m222.07,367.68l-1.6-3.91c-11.42-27.83-39.59-46.53-70.11-46.53-40.95,0-74.26,33.65-74.26,75.02v.54H0v-.54c0-28.17,8.05-55.78,23.27-79.82,14.7-23.21,34.57-42.06,58.93-54.64l.22-.06c29.48-1.59,57.67,5.31,82.25,20.64,30.04,18.73,52.34,52.15,56.83,85.12l.57,4.19Zm-147.06,24.03c.29-41.71,33.98-75.56,75.34-75.56,29.55,0,56.94,17.29,69.43,43.42-5.64-31.32-27.14-62.48-55.69-80.28-24.35-15.2-52.29-22.04-81.5-20.49-24.15,12.49-43.84,31.19-58.41,54.2-15.02,23.72-23,50.93-23.11,78.7h73.93Z"/></g><g class="cls-3"><path class="cls-1" d="m151.17,468.79c-31.51,0-58.62-20.37-69.94-47.85,4.6,33.63,27.73,67.37,56.35,85.35,25.42,16.18,53.58,22.52,82.14,20.98,48.66-24.98,171.63-134.51,171.63-134.51l-164.63.03c0,41.66-33.88,75.99-75.54,75.99Z"/><path d="m392.77,392.77l-.91.81c-1.23,1.09-123.74,109.44-171.9,134.17l-.22.06c-30.19,1.63-57.93-5.46-82.46-21.07-29.36-18.46-52.11-52.91-56.6-85.74l-.57-4.18,1.6,3.9c11.71,28.42,39.61,47.51,69.44,47.51,41.36,0,75-33.85,75-75.45h0s166.59-.03,166.59-.03Zm-173.19,133.97c45.71-23.54,158.17-122.65,170.35-133.43l-162.67.03c-.29,41.95-34.31,75.99-76.09,75.99-28.91,0-56.04-17.67-68.75-44.38,5.68,31.27,27.55,63.36,55.45,80.89,24.3,15.47,51.79,22.5,81.71,20.9Z"/></g></g><g class="cls-4"><path class="cls-1" d="m420.16,174.83c19.11-21.28,44.1-35.59,73.52-42.13,32.96-7.52,72.43-.68,99.47,19.86,8.84,3.68,17.12,9.1,24.3,16.28l53.04-53.04c-58.71-58.71-154.23-58.71-212.94,0-17.44,17.44-30.31,37.03-37.38,59.04Z"/><path d="m418.87,177.07l.78-2.41c7.37-22.94,20.39-42.13,37.52-59.26,58.92-58.92,154.78-58.92,213.7,0l.38.38-53.81,53.81-.38-.38c-6.95-6.95-15.07-12.38-24.13-16.16l-.12-.07c-26.04-19.78-64.91-27.54-99.02-19.76-28.15,6.26-53.18,19.63-73.23,41.97l-1.69,1.88Zm250.85-61.29c-58.53-58.11-153.42-57.99-211.79.38-16.4,16.4-29.06,34.63-36.46,56.42,19.87-21.44,44.52-34.29,72.09-40.42,34.38-7.84,73.56-.03,99.85,19.91,9,3.76,17.08,9.14,24.03,15.99l52.28-52.28Z"/><path class="cls-1" d="m707.24,268.6c-19.11,21.28-43.5,36.71-72.91,43.24-32.96,7.52-72.43.68-99.47-19.85-8.84-3.68-17.56-9.52-24.73-16.7l-116.38,116.5s218-4.33,276.71-63.04c17.45-17.45,29.71-38.14,36.78-60.16Z"/><path d="m392.77,392.77l.94-.94,116.76-116.88.04-.04c7.02,7.02,15.74,12.91,24.56,16.58l.12.07c26.04,19.78,64.91,27.54,99.02,19.76,28.14-6.25,52.58-20.75,72.63-43.08l1.69-1.88-.78,2.41c-7.37,22.94-19.79,43.25-36.92,60.37-30.43,30.43-104.18,45.99-160.68,53.69-61.16,8.33-115.75,9.94-116.3,9.95h-1.09Zm117.36-116.71l-115.04,115.16c18.49-.51,219.51-7.36,274.99-62.84,16.4-16.4,28.45-35.75,35.86-57.54-19.87,21.44-43.91,35.41-71.49,41.53-34.38,7.84-73.57.03-99.85-19.91-8.76-3.66-17.43-9.48-24.46-16.41Z"/><g class="cls-4"><path class="cls-1" d="m617.98,275.15c-22.17,22.17-55.68,28.25-83.07,16.79,27.02,20.55,66.11,27.74,99.92,19.91,29.25-6.78,53.47-22.22,72.47-43.4,16.57-51.9,4.45-111.4-36.81-152.66l-53.04,53.04c29.46,29.46,29.85,77.01.54,106.32Z"/><path d="m531.21,289.81l3.9,1.63c27.75,11.61,60.9,4.91,82.48-16.68,28.95-28.95,28.72-76.31-.53-105.56l-.38-.38,53.81-53.81.38.38c19.92,19.92,33.75,45.13,39.99,72.9,6.02,26.8,5.3,54.18-3.04,80.31l-.11.2c-19.72,21.97-44.53,37.03-72.75,43.57-34.49,7.99-73.89.14-100.37-20.01l-3.37-2.56Zm87-120.98c29.29,29.7,29.4,77.45.15,106.7-20.9,20.9-52.49,28.04-79.8,18.4,26.14,18.16,63.37,24.99,96.15,17.39,27.96-6.47,52.56-21.39,72.12-43.14,8.25-25.91,8.95-53.05,2.97-79.63-6.15-27.4-19.75-52.28-39.31-71.99l-52.28,52.28Z"/></g><g class="cls-3"><path class="cls-1" d="m509.85,168.18c22.28-22.28,55.86-27.04,83.29-15.62-27.03-20.53-67.24-28.02-100.2-20.51-29.42,6.54-53.81,21.96-72.91,43.24-16.74,52.07-26.25,216.47-26.25,216.47l116.39-116.43c-29.46-29.46-29.78-77.69-.32-107.15Z"/><path d="m392.77,392.77l.07-1.22c.1-1.64,10.11-164.88,26.68-216.43l.11-.19c20.2-22.5,44.83-37.1,73.2-43.41,33.81-7.71,74.26.56,100.64,20.61l3.36,2.55-3.89-1.62c-28.38-11.81-61.61-5.58-82.7,15.51-29.24,29.24-29.1,76.97.32,106.39h0s-117.78,117.82-117.78,117.82Zm27.73-217.2c-15.68,48.96-25.12,198.57-26.11,214.81l115.01-115.04c-29.46-29.87-29.47-78,.07-107.54,20.44-20.44,52.12-27.13,80-17.23-26.13-18.09-64.28-25.32-96.41-17.99-28.12,6.25-52.53,20.71-72.56,42.99Z"/></g></g><g class="cls-4"><path class="cls-1" d="m365.38,610.71c-19.11,21.28-44.1,35.59-73.52,42.13-32.96,7.52-72.43.68-99.47-19.86-8.84-3.68-17.12-9.1-24.3-16.28l-53.04,53.04c58.71,58.71,154.23,58.71,212.94,0,17.44-17.44,30.31-37.03,37.38-59.04Z"/><path d="m366.67,608.46l-.78,2.41c-7.37,22.94-20.39,42.13-37.52,59.26-58.92,58.92-154.78,58.92-213.7,0l-.38-.38,53.81-53.81.38.38c6.95,6.95,15.07,12.38,24.13,16.16l.12.07c26.04,19.78,64.91,27.54,99.02,19.76,28.15-6.26,53.18-19.63,73.23-41.97l1.69-1.88Zm-250.85,61.29c58.53,58.11,153.42,57.99,211.79-.38,16.4-16.4,29.06-34.63,36.46-56.42-19.87,21.44-44.52,34.29-72.09,40.42-34.38,7.84-73.56.03-99.85-19.91-9-3.76-17.08-9.14-24.03-15.99l-52.28,52.28Z"/><path class="cls-1" d="m78.3,516.94c19.11-21.28,43.5-36.71,72.91-43.24,32.96-7.52,72.43-.68,99.47,19.85,8.84,3.68,17.56,9.52,24.73,16.7l116.38-116.5s-218,4.33-276.71,63.04c-17.45,17.45-29.71,38.14-36.78,60.16Z"/><path d="m392.77,392.77l-.94.94-116.76,116.88-.04.04c-7.02-7.02-15.74-12.91-24.56-16.58l-.12-.07c-26.04-19.78-64.91-27.54-99.02-19.76-28.14,6.25-52.58,20.75-72.63,43.08l-1.69,1.88.78-2.41c7.37-22.94,19.79-43.25,36.92-60.37,30.43-30.43,104.18-45.99,160.68-53.69,61.16-8.33,115.75-9.94,116.3-9.95h1.09Zm-117.36,116.71l115.04-115.16c-18.49.51-219.51,7.36-274.99,62.84-16.4,16.4-28.45,35.75-35.86,57.54,19.87-21.44,43.91-35.41,71.49-41.53,34.38-7.84,73.57-.03,99.85,19.91,8.76,3.66,17.43,9.48,24.46,16.41Z"/><g class="cls-4"><path class="cls-1" d="m167.56,510.39c22.17-22.17,55.68-28.25,83.07-16.79-27.02-20.55-66.11-27.74-99.92-19.91-29.25,6.78-53.47,22.22-72.47,43.4-16.57,51.9-4.45,111.4,36.81,152.66l53.04-53.04c-29.46-29.46-29.85-77.01-.54-106.32Z"/><path d="m254.33,495.73l-3.9-1.63c-27.75-11.61-60.9-4.91-82.48,16.68-28.95,28.95-28.72,76.31.53,105.56l.38.38-53.81,53.81-.38-.38c-19.92-19.92-33.75-45.13-39.99-72.9-6.02-26.8-5.3-54.18,3.04-80.31l.11-.2c19.72-21.97,44.53-37.03,72.75-43.57,34.49-7.99,73.89-.14,100.37,20.01l3.37,2.56Zm-87,120.98c-29.29-29.7-29.4-77.45-.15-106.7,20.9-20.9,52.49-28.04,79.8-18.4-26.14-18.16-63.37-24.99-96.15-17.39-27.96,6.47-52.56,21.39-72.12,43.14-8.25,25.91-8.95,53.05-2.97,79.63,6.15,27.4,19.75,52.28,39.31,71.99l52.28-52.28Z"/></g><g class="cls-3"><path class="cls-1" d="m275.69,617.36c-22.28,22.28-55.86,27.04-83.29,15.62,27.03,20.53,67.24,28.02,100.2,20.51,29.42-6.54,53.81-21.96,72.91-43.24,16.74-52.07,26.25-216.47,26.25-216.47l-116.39,116.43c29.46,29.46,29.78,77.69.32,107.15Z"/><path d="m392.77,392.77l-.07,1.22c-.1,1.64-10.11,164.88-26.68,216.43l-.11.19c-20.2,22.5-44.83,37.1-73.2,43.41-33.81,7.71-74.26-.56-100.64-20.61l-3.36-2.55,3.89,1.62c28.38,11.81,61.61,5.58,82.7-15.51,29.24-29.24,29.1-76.97-.32-106.39h0s117.78-117.82,117.78-117.82Zm-27.73,217.2c15.68-48.96,25.12-198.57,26.11-214.81l-115.01,115.04c29.46,29.87,29.47,78-.07,107.54-20.44,20.44-52.12,27.13-80,17.23,26.13,18.09,64.28,25.32,96.41,17.99,28.12-6.25,52.53-20.71,72.56-42.99Z"/></g></g><g class="cls-4"><path class="cls-1" d="m610.71,420.16c21.28,19.11,35.59,44.1,42.13,73.52,7.52,32.96.68,72.43-19.86,99.47-3.68,8.84-9.1,17.12-16.28,24.3l53.04,53.04c58.71-58.71,58.71-154.23,0-212.94-17.44-17.44-37.03-30.31-59.04-37.38Z"/><path d="m608.46,418.87l2.41.78c22.94,7.37,42.13,20.39,59.26,37.52,58.92,58.92,58.92,154.78,0,213.7l-.38.38-53.81-53.81.38-.38c6.95-6.95,12.38-15.07,16.16-24.13l.07-.12c19.78-26.04,27.54-64.91,19.76-99.02-6.26-28.15-19.63-53.18-41.97-73.23l-1.88-1.69Zm61.29,250.85c58.11-58.53,57.99-153.42-.38-211.79-16.4-16.4-34.63-29.06-56.42-36.46,21.44,19.87,34.29,44.52,40.42,72.09,7.84,34.38.03,73.56-19.91,99.85-3.76,9-9.14,17.08-15.99,24.03l52.28,52.28Z"/><path class="cls-1" d="m516.94,707.24c-21.28-19.11-36.71-43.5-43.24-72.91-7.52-32.96-.68-72.43,19.85-99.47,3.68-8.84,9.52-17.56,16.7-24.73l-116.5-116.38s4.33,218,63.04,276.71c17.45,17.45,38.14,29.71,60.16,36.78Z"/><path d="m392.77,392.77l.94.94,116.88,116.76.04.04c-7.02,7.02-12.91,15.74-16.58,24.56l-.07.12c-19.78,26.04-27.54,64.91-19.76,99.02,6.25,28.14,20.75,52.58,43.08,72.63l1.88,1.69-2.41-.78c-22.94-7.37-43.25-19.79-60.37-36.92-30.43-30.43-45.99-104.18-53.69-160.68-8.33-61.16-9.94-115.75-9.95-116.3v-1.09Zm116.71,117.36l-115.16-115.04c.51,18.49,7.36,219.51,62.84,274.99,16.4,16.4,35.75,28.45,57.54,35.86-21.44-19.87-35.41-43.91-41.53-71.49-7.84-34.38-.03-73.57,19.91-99.85,3.66-8.76,9.48-17.43,16.41-24.46Z"/><g class="cls-4"><path class="cls-1" d="m510.39,617.98c-22.17-22.17-28.25-55.68-16.79-83.07-20.55,27.02-27.74,66.11-19.91,99.92,6.78,29.25,22.22,53.47,43.4,72.47,51.9,16.57,111.4,4.45,152.66-36.81l-53.04-53.04c-29.46,29.46-77.01,29.85-106.32.54Z"/><path d="m495.73,531.21l-1.63,3.9c-11.61,27.75-4.91,60.9,16.68,82.48,28.95,28.95,76.31,28.72,105.56-.53l.38-.38,53.81,53.81-.38.38c-19.92,19.92-45.13,33.75-72.9,39.99-26.8,6.02-54.18,5.3-80.31-3.04l-.2-.11c-21.97-19.72-37.03-44.53-43.57-72.75-7.99-34.49-.14-73.89,20.01-100.37l2.56-3.37Zm120.98,87c-29.7,29.29-77.45,29.4-106.7.15-20.9-20.9-28.04-52.49-18.4-79.8-18.16,26.14-24.99,63.37-17.39,96.15,6.47,27.96,21.39,52.56,43.14,72.12,25.91,8.25,53.05,8.95,79.63,2.97,27.4-6.15,52.28-19.75,71.99-39.31l-52.28-52.28Z"/></g><g class="cls-3"><path class="cls-1" d="m617.36,509.85c22.28,22.28,27.04,55.86,15.62,83.29,20.53-27.03,28.02-67.24,20.51-100.2-6.54-29.42-21.96-53.81-43.24-72.91-52.07-16.74-216.47-26.25-216.47-26.25l116.43,116.39c29.46-29.46,77.69-29.78,107.15-.32Z"/><path d="m392.77,392.77l1.22.07c1.64.1,164.88,10.11,216.43,26.68l.19.11c22.5,20.2,37.1,44.83,43.41,73.2,7.71,33.81-.56,74.26-20.61,100.64l-2.55,3.36,1.62-3.89c11.81-28.38,5.58-61.61-15.51-82.7-29.24-29.24-76.97-29.1-106.39.32h0s-117.82-117.78-117.82-117.78Zm217.2,27.73c-48.96-15.68-198.57-25.12-214.81-26.11l115.04,115.01c29.87-29.46,78-29.47,107.54.07,20.44,20.44,27.13,52.12,17.23,80,18.09-26.13,25.32-64.28,17.99-96.41-6.25-28.12-20.71-52.53-42.99-72.56Z"/></g></g><g class="cls-4"><path class="cls-1" d="m174.83,365.38c-21.28-19.11-35.59-44.1-42.13-73.52-7.52-32.96-.68-72.43,19.86-99.47,3.68-8.84,9.1-17.12,16.28-24.3l-53.04-53.04c-58.71,58.71-58.71,154.23,0,212.94,17.44,17.44,37.03,30.31,59.04,37.38Z"/><path d="m177.07,366.67l-2.41-.78c-22.94-7.37-42.13-20.39-59.26-37.52-58.92-58.92-58.92-154.78,0-213.7l.38-.38,53.81,53.81-.38.38c-6.95,6.95-12.38,15.07-16.16,24.13l-.07.12c-19.78,26.04-27.54,64.91-19.76,99.02,6.26,28.15,19.63,53.18,41.97,73.23l1.88,1.69Zm-61.29-250.85c-58.11,58.53-57.99,153.42.38,211.79,16.4,16.4,34.63,29.06,56.42,36.46-21.44-19.87-34.29-44.52-40.42-72.09-7.84-34.38-.03-73.56,19.91-99.85,3.76-9,9.14-17.08,15.99-24.03l-52.28-52.28Z"/><path class="cls-1" d="m268.6,78.3c21.28,19.11,36.71,43.5,43.24,72.91,7.52,32.96.68,72.43-19.85,99.47-3.68,8.84-9.52,17.56-16.7,24.73l116.5,116.38s-4.33-218-63.04-276.71c-17.45-17.45-38.14-29.71-60.16-36.78Z"/><path d="m392.77,392.77l-.94-.94-116.88-116.76-.04-.04c7.02-7.02,12.91-15.74,16.58-24.56l.07-.12c19.78-26.04,27.54-64.91,19.76-99.02-6.25-28.14-20.75-52.58-43.08-72.63l-1.88-1.69,2.41.78c22.94,7.37,43.25,19.79,60.37,36.92,30.43,30.43,45.99,104.18,53.69,160.68,8.33,61.16,9.94,115.75,9.95,116.3v1.09Zm-116.71-117.36l115.16,115.04c-.51-18.49-7.36-219.51-62.84-274.99-16.4-16.4-35.75-28.45-57.54-35.86,21.44,19.87,35.41,43.91,41.53,71.49,7.84,34.38.03,73.57-19.91,99.85-3.66,8.76-9.48,17.43-16.41,24.46Z"/><g class="cls-4"><path class="cls-1" d="m275.15,167.56c22.17,22.17,28.25,55.68,16.79,83.07,20.55-27.02,27.74-66.11,19.91-99.92-6.78-29.25-22.22-53.47-43.4-72.47-51.9-16.57-111.4-4.45-152.66,36.81l53.04,53.04c29.46-29.46,77.01-29.85,106.32-.54Z"/><path d="m289.81,254.33l1.63-3.9c11.61-27.75,4.91-60.9-16.68-82.48-28.95-28.95-76.31-28.72-105.56.53l-.38.38-53.81-53.81.38-.38c19.92-19.92,45.13-33.75,72.9-39.99,26.8-6.02,54.18-5.3,80.31,3.04l.2.11c21.97,19.72,37.03,44.53,43.57,72.75,7.99,34.49.14,73.89-20.01,100.37l-2.56,3.37Zm-120.98-87c29.7-29.29,77.45-29.4,106.7-.15,20.9,20.9,28.04,52.49,18.4,79.8,18.16-26.14,24.99-63.37,17.39-96.15-6.47-27.96-21.39-52.56-43.14-72.12-25.91-8.25-53.05-8.95-79.63-2.97-27.4,6.15-52.28,19.75-71.99,39.31l52.28,52.28Z"/></g><g class="cls-3"><path class="cls-1" d="m168.18,275.69c-22.28-22.28-27.04-55.86-15.62-83.29-20.53,27.03-28.02,67.24-20.51,100.2,6.54,29.42,21.96,53.81,43.24,72.91,52.07,16.74,216.47,26.25,216.47,26.25l-116.43-116.39c-29.46,29.46-77.69,29.78-107.15.32Z"/><path d="m392.77,392.77l-1.22-.07c-1.64-.1-164.88-10.11-216.43-26.68l-.19-.11c-22.5-20.2-37.1-44.83-43.41-73.2-7.71-33.81.56-74.26,20.61-100.64l2.55-3.36-1.62,3.89c-11.81,28.38-5.58,61.61,15.51,82.7,29.24,29.24,76.97,29.1,106.39-.32h0s117.82,117.78,117.82,117.78Zm-217.2-27.73c48.96,15.68,198.57,25.12,214.81,26.11l-115.04-115.01c-29.87,29.46-78,29.47-107.54-.07-20.44-20.44-27.13-52.12-17.23-80-18.09,26.13-25.32,64.28-17.99,96.41,6.25,28.12,20.71,52.53,42.99,72.56Z"/></g></g></g></svg>