<?xml version="1.0" encoding="UTF-8"?><svg id="Main_Graphic" xmlns="http://www.w3.org/2000/svg" viewBox="0 0 355.28 461.73"><defs><style>.cls-1{fill:#ed2027;}.cls-2{opacity:.8;}.cls-3{opacity:.7;}</style></defs><g id="Red"><g class="cls-3"><path class="cls-1" d="m18.64,257.8c-1.81-33.57,7.07-66.24,26.09-96.13,21.15-33.64,59.65-60.77,99.19-66.18,10.41-4.29,21.79-6.67,33.73-6.67V.64C80.04.64.63,80.04.63,177.64c0,29,5.58,55.97,18,80.15Z"/><path d="m19.43,260.74l-1.36-2.65C5.13,232.89,0,206.11,0,177.64,0,79.69,79.69,0,177.64,0h.64v89.45h-.64c-11.55,0-22.82,2.23-33.49,6.62l-.16.04c-38.09,5.2-76.85,31.06-98.73,65.88-18.2,28.6-27.89,60.53-25.99,95.76l.16,2.97ZM177.01,1.27C80.05,1.62,1.27,80.6,1.27,177.64c0,27.27,4.64,52.94,16.6,77.21-1.3-34.34,8.5-65.51,26.32-93.53,22.06-35.1,61.13-61.17,99.55-66.45,10.61-4.35,21.8-6.6,33.26-6.69V1.27Z"/><path class="cls-1" d="m335.22,97.1c1.81,33.58-5.64,66.67-24.66,96.56-21.15,33.64-59.65,60.77-99.19,66.18-10.41,4.29-22.5,6.68-34.44,6.68l.1,193.58s177.62-184.81,177.62-282.42c0-29-7.01-56.4-19.43-80.58Z"/><path d="m177.03,461.73v-1.56s-.1-194.21-.1-194.21v-.07c11.67,0,23.82-2.36,34.2-6.63l.16-.04c38.09-5.2,76.84-31.06,98.73-65.89,18.2-28.59,26.46-60.95,24.57-96.18l-.16-2.97,1.36,2.65c12.94,25.2,19.5,52.4,19.5,80.87,0,50.6-48.37,124.83-88.94,178.19-43.92,57.76-87.95,104.49-88.4,104.95l-.91.9Zm.54-194.57l.1,191.35c14.94-15.79,176.35-188.58,176.35-280.82,0-27.27-6.06-53.37-18.02-77.63,1.3,34.34-7.07,65.94-24.9,93.95-22.06,35.1-61.14,61.18-99.55,66.46-10.33,4.24-22.37,6.61-33.97,6.7Z"/><g class="cls-3"><path class="cls-1" d="m266.47,176.75c0,36.85-22.8,69.77-55.09,83.01,39.54-5.38,78.02-31.89,99.61-66.51,18.68-29.95,25.97-62.91,24.16-96.32C305.77,40.02,246.24.64,177.64.64v88.18c48.98,0,88.82,39.2,88.82,87.93Z"/><path d="m206.53,261.06l4.6-1.89c32.72-13.42,54.7-46.54,54.7-82.42,0-48.14-39.56-87.3-88.19-87.3h-.64V0h.64c33.12,0,65.57,9.46,93.84,27.36,27.29,17.28,49.45,40.63,64.23,69.28l.07.26c1.87,34.66-6.24,67.79-24.26,96.69-22.02,35.31-61.3,61.53-100.06,66.81l-4.93.67Zm-28.25-172.88c49.04.34,88.82,39.94,88.82,88.57,0,34.74-20.33,66.93-51.04,81.62,36.82-6.63,73.45-31.91,94.38-65.46,17.86-28.63,25.91-61.47,24.08-95.81-14.68-28.39-36.66-51.54-63.72-68.67C242.91,10.78,210.93,1.4,178.28,1.27v86.91Z"/></g><g class="cls-2"><path class="cls-1" d="m87.67,177.71c0-37.04,23.95-68.91,56.25-82.22-39.54,5.4-79.19,32.6-100.34,66.25-19.02,29.89-26.47,62.98-24.66,96.56,29.37,57.2,158.12,201.77,158.12,201.77l-.03-193.54c-48.98,0-89.33-39.83-89.33-88.81Z"/><path d="m177.03,461.73l-.96-1.07c-1.29-1.44-128.66-145.46-157.73-202.08l-.07-.25c-1.92-35.49,6.42-68.11,24.76-96.94,21.7-34.52,62.2-61.26,100.79-66.53l4.91-.67-4.58,1.89c-33.41,13.77-55.85,46.57-55.85,81.63,0,48.62,39.79,88.17,88.7,88.17h0s.03,195.84.03,195.84ZM19.54,258.13c27.67,53.73,144.19,185.94,156.86,200.26l-.03-191.23c-49.32-.34-89.34-40.33-89.34-89.44,0-33.98,20.78-65.88,52.17-80.83-36.76,6.68-74.48,32.39-95.09,65.19-18.18,28.57-26.45,60.88-24.58,96.05Z"/></g></g></g></svg>