<?xml version="1.0" encoding="UTF-8"?><svg id="Main_Graphic" xmlns="http://www.w3.org/2000/svg" viewBox="0 0 663.57 663.57"><defs><style>.cls-1{fill:#f0f;}.cls-2{opacity:.8;}.cls-3{opacity:.7;}</style></defs><g id="Bottom"><g class="cls-3"><path class="cls-1" d="m217.97,185.25c-1.3-24.13,5.08-47.6,18.75-69.08,15.2-24.18,42.86-43.67,71.27-47.55,7.48-3.08,15.66-4.79,24.24-4.79V.46c-70.14,0-127.19,57.06-127.19,127.19,0,20.84,4.01,40.22,12.94,57.6Z"/><path d="m218.54,187.36l-.98-1.91c-9.3-18.11-12.98-37.35-12.98-57.81C204.58,57.26,261.84,0,332.23,0h.46v64.28h-.46c-8.3,0-16.4,1.6-24.06,4.76l-.11.03c-27.37,3.74-55.22,22.32-70.95,47.34-13.07,20.55-20.04,43.5-18.68,68.81l.11,2.14ZM331.77.91c-69.67.25-126.28,57.01-126.28,126.74,0,19.59,3.33,38.04,11.92,55.48-.93-24.68,6.11-47.07,18.92-67.21,15.85-25.22,43.92-43.96,71.54-47.75,7.62-3.13,15.66-4.74,23.9-4.81V.91Z"/><path class="cls-1" d="m445.46,69.78c1.3,24.13-4.06,47.91-17.72,69.38-15.2,24.18-42.86,43.67-71.27,47.55-7.48,3.08-16.17,4.8-24.75,4.8l.07,139.1s127.63-132.8,127.63-202.94c0-20.84-5.04-40.53-13.96-57.9Z"/><path d="m331.79,331.79v-1.12s-.07-139.56-.07-139.56v-.05c8.38,0,17.11-1.69,24.57-4.77l.11-.03c27.37-3.74,55.22-22.32,70.95-47.34,13.07-20.55,19.01-43.8,17.65-69.11l-.11-2.14.98,1.91c9.3,18.11,14.01,37.66,14.01,58.11,0,36.36-34.75,89.7-63.91,128.05-31.56,41.51-63.2,75.08-63.52,75.41l-.66.65Zm.39-139.82l.07,137.5c10.73-11.35,126.72-135.51,126.72-201.79,0-19.59-4.36-38.35-12.95-55.79.93,24.68-5.08,47.38-17.89,67.51-15.85,25.22-43.93,43.96-71.54,47.75-7.42,3.05-16.07,4.75-24.41,4.81Z"/><g class="cls-3"><path class="cls-1" d="m396.05,127.01c0,26.48-16.38,50.13-39.59,59.65,28.41-3.86,56.06-22.92,71.58-47.79,13.42-21.52,18.66-45.21,17.36-69.21C424.3,28.76,381.52.46,332.23.46v63.37c35.19,0,63.83,28.17,63.83,63.19Z"/><path d="m352.98,187.59l3.31-1.36c23.51-9.64,39.31-33.44,39.31-59.23,0-34.59-28.43-62.73-63.37-62.73h-.46V0h.46c23.8,0,47.12,6.8,67.43,19.66,19.61,12.42,35.53,29.2,46.16,49.78l.05.19c1.34,24.9-4.48,48.72-17.43,69.48-15.83,25.37-44.05,44.22-71.9,48l-3.54.48Zm-20.3-124.23c35.24.24,63.83,28.7,63.83,63.64,0,24.97-14.61,48.1-36.68,58.65,26.46-4.77,52.78-22.93,67.82-47.04,12.84-20.57,18.62-44.17,17.3-68.85-10.55-20.4-26.34-37.03-45.79-49.34C379.13,7.75,356.15,1,332.68.91v62.45Z"/></g><g class="cls-2"><path class="cls-1" d="m267.57,127.7c0-26.62,17.21-49.52,40.42-59.08-28.41,3.88-56.91,23.43-72.1,47.6-13.67,21.48-19.02,45.26-17.72,69.38,21.1,41.1,113.62,144.98,113.62,144.98l-.02-139.07c-35.19,0-64.19-28.62-64.19-63.81Z"/><path d="m331.79,331.79l-.69-.77c-.92-1.04-92.45-104.53-113.34-145.21l-.05-.18c-1.38-25.5,4.61-48.94,17.79-69.66,15.59-24.81,44.69-44.02,72.42-47.81l3.53-.48-3.29,1.36c-24.01,9.89-40.13,33.46-40.13,58.66,0,34.94,28.59,63.36,63.74,63.36h0s.02,140.73.02,140.73Zm-113.17-146.3c19.88,38.61,103.61,133.61,112.72,143.9l-.02-137.41c-35.44-.25-64.19-28.98-64.19-64.27,0-24.42,14.93-47.34,37.49-58.08-26.41,4.8-53.52,23.27-68.33,46.84-13.06,20.53-19,43.75-17.66,69.02Z"/></g></g><g class="cls-3"><path class="cls-1" d="m445.61,478.33c1.3,24.13-5.08,47.6-18.75,69.08-15.2,24.18-42.86,43.67-71.27,47.55-7.48,3.08-15.66,4.79-24.24,4.79v63.37c70.14,0,127.19-57.06,127.19-127.19,0-20.84-4.01-40.22-12.94-57.6Z"/><path d="m445.04,476.21l.98,1.91c9.3,18.11,12.98,37.35,12.98,57.81,0,70.39-57.26,127.65-127.65,127.65h-.46v-64.28h.46c8.3,0,16.4-1.6,24.06-4.76l.11-.03c27.37-3.74,55.22-22.32,70.95-47.34,13.07-20.55,20.04-43.5,18.68-68.81l-.11-2.14Zm-113.23,186.45c69.67-.25,126.28-57.01,126.28-126.74,0-19.59-3.33-38.04-11.92-55.48.93,24.68-6.11,47.07-18.92,67.21-15.85,25.22-43.92,43.96-71.54,47.75-7.62,3.13-15.66,4.74-23.9,4.81v62.45Z"/><path class="cls-1" d="m218.12,593.8c-1.3-24.13,4.06-47.91,17.72-69.38,15.2-24.18,42.86-43.67,71.27-47.55,7.48-3.08,16.17-4.8,24.75-4.8l-.07-139.1s-127.63,132.8-127.63,202.94c0,20.84,5.04,40.53,13.96,57.9Z"/><path d="m331.79,331.79v1.12s.07,139.56.07,139.56v.05c-8.38,0-17.11,1.69-24.57,4.77l-.11.03c-27.37,3.74-55.22,22.32-70.95,47.34-13.07,20.55-19.01,43.8-17.65,69.11l.11,2.14-.98-1.91c-9.3-18.11-14.01-37.66-14.01-58.11,0-36.36,34.75-89.7,63.91-128.05,31.56-41.51,63.2-75.08,63.52-75.41l.66-.65Zm-.39,139.82l-.07-137.5c-10.73,11.35-126.72,135.51-126.72,201.79,0,19.59,4.36,38.35,12.95,55.79-.93-24.68,5.08-47.38,17.89-67.51,15.85-25.22,43.93-43.96,71.54-47.75,7.42-3.05,16.07-4.75,24.41-4.81Z"/><g class="cls-3"><path class="cls-1" d="m267.52,536.56c0-26.48,16.38-50.13,39.59-59.65-28.41,3.86-56.06,22.92-71.58,47.79-13.42,21.52-18.66,45.21-17.36,69.21,21.11,40.9,63.88,69.2,113.18,69.2v-63.37c-35.19,0-63.83-28.17-63.83-63.19Z"/><path d="m310.59,475.98l-3.31,1.36c-23.51,9.64-39.31,33.44-39.31,59.23,0,34.59,28.43,62.73,63.37,62.73h.46v64.28h-.46c-23.8,0-47.12-6.8-67.43-19.66-19.61-12.42-35.53-29.2-46.16-49.78l-.05-.19c-1.34-24.9,4.48-48.72,17.43-69.48,15.83-25.37,44.05-44.22,71.9-48l3.54-.48Zm20.3,124.23c-35.24-.24-63.83-28.7-63.83-63.64,0-24.97,14.61-48.1,36.68-58.65-26.46,4.77-52.78,22.93-67.82,47.04-12.84,20.57-18.62,44.17-17.3,68.85,10.55,20.4,26.34,37.03,45.79,49.34,20.04,12.69,43.02,19.43,66.48,19.52v-62.45Z"/></g><g class="cls-2"><path class="cls-1" d="m396,535.87c0,26.62-17.21,49.52-40.42,59.08,28.41-3.88,56.91-23.43,72.1-47.6,13.67-21.48,19.02-45.26,17.72-69.38-21.1-41.1-113.62-144.98-113.62-144.98l.02,139.07c35.19,0,64.19,28.62,64.19,63.81Z"/><path d="m331.79,331.79l.69.77c.92,1.04,92.45,104.53,113.34,145.21l.05.18c1.38,25.5-4.61,48.94-17.79,69.66-15.59,24.81-44.69,44.02-72.42,47.81l-3.53.48,3.29-1.36c24.01-9.89,40.13-33.46,40.13-58.66,0-34.94-28.59-63.36-63.74-63.36h0s-.02-140.73-.02-140.73Zm113.17,146.3c-19.88-38.61-103.61-133.61-112.72-143.9l.02,137.41c35.44.25,64.19,28.98,64.19,64.27,0,24.42-14.93,47.34-37.49,58.08,26.41-4.8,53.52-23.27,68.33-46.84,13.06-20.53,19-43.75,17.66-69.02Z"/></g></g><g class="cls-3"><path class="cls-1" d="m478.33,217.97c24.13-1.3,47.6,5.08,69.08,18.75,24.18,15.2,43.67,42.86,47.55,71.27,3.08,7.48,4.79,15.66,4.79,24.24h63.37c0-70.14-57.06-127.19-127.19-127.19-20.84,0-40.22,4.01-57.6,12.94Z"/><path d="m476.21,218.54l1.91-.98c18.11-9.3,37.35-12.98,57.81-12.98,70.39,0,127.65,57.26,127.65,127.65v.46h-64.28v-.46c0-8.3-1.6-16.4-4.76-24.06l-.03-.11c-3.74-27.37-22.32-55.22-47.34-70.95-20.55-13.07-43.5-20.04-68.81-18.68l-2.14.11Zm186.45,113.23c-.25-69.67-57.01-126.28-126.74-126.28-19.59,0-38.04,3.33-55.48,11.92,24.68-.93,47.07,6.11,67.21,18.92,25.22,15.85,43.96,43.92,47.75,71.54,3.13,7.62,4.74,15.66,4.81,23.9h62.45Z"/><path class="cls-1" d="m593.8,445.46c-24.13,1.3-47.91-4.06-69.38-17.72-24.18-15.2-43.67-42.86-47.55-71.27-3.08-7.48-4.8-16.17-4.8-24.75l-139.1.07s132.8,127.63,202.94,127.63c20.84,0,40.53-5.04,57.9-13.96Z"/><path d="m331.79,331.79h1.12s139.56-.07,139.56-.07h.05c0,8.38,1.69,17.11,4.77,24.57l.03.11c3.74,27.37,22.32,55.22,47.34,70.95,20.55,13.07,43.8,19.01,69.11,17.65l2.14-.11-1.91.98c-18.11,9.3-37.66,14.01-58.11,14.01-36.36,0-89.7-34.75-128.05-63.91-41.51-31.56-75.08-63.2-75.41-63.52l-.65-.66Zm139.82.39l-137.5.07c11.35,10.73,135.51,126.72,201.79,126.72,19.59,0,38.35-4.36,55.79-12.95-24.68.93-47.38-5.08-67.51-17.89-25.22-15.85-43.96-43.93-47.75-71.54-3.05-7.42-4.75-16.07-4.81-24.41Z"/><g class="cls-3"><path class="cls-1" d="m536.56,396.05c-26.48,0-50.13-16.38-59.65-39.59,3.86,28.41,22.92,56.06,47.79,71.58,21.52,13.42,45.21,18.66,69.21,17.36,40.9-21.11,69.2-63.88,69.2-113.18h-63.37c0,35.19-28.17,63.83-63.19,63.83Z"/><path d="m475.98,352.98l1.36,3.31c9.64,23.51,33.44,39.31,59.23,39.31,34.59,0,62.73-28.43,62.73-63.37v-.46h64.28v.46c0,23.8-6.8,47.12-19.66,67.43-12.42,19.61-29.2,35.53-49.78,46.16l-.19.05c-24.9,1.34-48.72-4.48-69.48-17.43-25.37-15.83-44.22-44.05-48-71.9l-.48-3.54Zm124.23-20.3c-.24,35.24-28.7,63.83-63.64,63.83-24.97,0-48.1-14.61-58.65-36.68,4.77,26.46,22.93,52.78,47.04,67.82,20.57,12.84,44.17,18.62,68.85,17.3,20.4-10.55,37.03-26.34,49.34-45.79,12.69-20.04,19.43-43.02,19.52-66.48h-62.45Z"/></g><g class="cls-2"><path class="cls-1" d="m535.87,267.57c26.62,0,49.52,17.21,59.08,40.42-3.88-28.41-23.43-56.91-47.6-72.1-21.48-13.67-45.26-19.02-69.38-17.72-41.1,21.1-144.98,113.62-144.98,113.62l139.07-.02c0-35.19,28.62-64.19,63.81-64.19Z"/><path d="m331.79,331.79l.77-.69c1.04-.92,104.53-92.45,145.21-113.34l.18-.05c25.5-1.38,48.94,4.61,69.66,17.79,24.81,15.59,44.02,44.69,47.81,72.42l.48,3.53-1.36-3.29c-9.89-24.01-33.46-40.13-58.66-40.13-34.94,0-63.36,28.59-63.36,63.74h0s-140.73.02-140.73.02Zm146.3-113.17c-38.61,19.88-133.61,103.61-143.9,112.72l137.41-.02c.25-35.44,28.98-64.19,64.27-64.19,24.42,0,47.34,14.93,58.08,37.49-4.8-26.41-23.27-53.52-46.84-68.33-20.53-13.06-43.75-19-69.02-17.66Z"/></g></g><g class="cls-3"><path class="cls-1" d="m185.25,445.61c-24.13,1.3-47.6-5.08-69.08-18.75-24.18-15.2-43.67-42.86-47.55-71.27-3.08-7.48-4.79-15.66-4.79-24.24H.46c0,70.14,57.06,127.19,127.19,127.19,20.84,0,40.22-4.01,57.6-12.94Z"/><path d="m187.36,445.04l-1.91.98c-18.11,9.3-37.35,12.98-57.81,12.98C57.26,459,0,401.74,0,331.35v-.46h64.28v.46c0,8.3,1.6,16.4,4.76,24.06l.03.11c3.74,27.37,22.32,55.22,47.34,70.95,20.55,13.07,43.5,20.04,68.81,18.68l2.14-.11ZM.91,331.81c.25,69.67,57.01,126.28,126.74,126.28,19.59,0,38.04-3.33,55.48-11.92-24.68.93-47.07-6.11-67.21-18.92-25.22-15.85-43.96-43.92-47.75-71.54-3.13-7.62-4.74-15.66-4.81-23.9H.91Z"/><path class="cls-1" d="m69.78,218.12c24.13-1.3,47.91,4.06,69.38,17.72,24.18,15.2,43.67,42.86,47.55,71.27,3.08,7.48,4.8,16.17,4.8,24.75l139.1-.07s-132.8-127.63-202.94-127.63c-20.84,0-40.53,5.04-57.9,13.96Z"/><path d="m331.79,331.79h-1.12s-139.56.07-139.56.07h-.05c0-8.38-1.69-17.11-4.77-24.57l-.03-.11c-3.74-27.37-22.32-55.22-47.34-70.95-20.55-13.07-43.8-19.01-69.11-17.65l-2.14.11,1.91-.98c18.11-9.3,37.66-14.01,58.11-14.01,36.36,0,89.7,34.75,128.05,63.91,41.51,31.56,75.08,63.2,75.41,63.52l.65.66Zm-139.82-.39l137.5-.07c-11.35-10.73-135.51-126.72-201.79-126.72-19.59,0-38.35,4.36-55.79,12.95,24.68-.93,47.38,5.08,67.51,17.89,25.22,15.85,43.96,43.93,47.75,71.54,3.05,7.42,4.75,16.07,4.81,24.41Z"/><g class="cls-3"><path class="cls-1" d="m127.01,267.52c26.48,0,50.13,16.38,59.65,39.59-3.86-28.41-22.92-56.06-47.79-71.58-21.52-13.42-45.21-18.66-69.21-17.36C28.76,239.28.46,282.06.46,331.35h63.37c0-35.19,28.17-63.83,63.19-63.83Z"/><path d="m187.59,310.59l-1.36-3.31c-9.64-23.51-33.44-39.31-59.23-39.31-34.59,0-62.73,28.43-62.73,63.37v.46H0v-.46c0-23.8,6.8-47.12,19.66-67.43,12.42-19.61,29.2-35.53,49.78-46.16l.19-.05c24.9-1.34,48.72,4.48,69.48,17.43,25.37,15.83,44.22,44.05,48,71.9l.48,3.54Zm-124.23,20.3c.24-35.24,28.7-63.83,63.64-63.83,24.97,0,48.1,14.61,58.65,36.68-4.77-26.46-22.93-52.78-47.04-67.82-20.57-12.84-44.17-18.62-68.85-17.3-20.4,10.55-37.03,26.34-49.34,45.79C7.75,284.45,1,307.43.91,330.89h62.45Z"/></g><g class="cls-2"><path class="cls-1" d="m127.7,396c-26.62,0-49.52-17.21-59.08-40.42,3.88,28.41,23.43,56.91,47.6,72.1,21.48,13.67,45.26,19.02,69.38,17.72,41.1-21.1,144.98-113.62,144.98-113.62l-139.07.02c0,35.19-28.62,64.19-63.81,64.19Z"/><path d="m331.79,331.79l-.77.69c-1.04.92-104.53,92.45-145.21,113.34l-.18.05c-25.5,1.38-48.94-4.61-69.66-17.79-24.81-15.59-44.02-44.69-47.81-72.42l-.48-3.53,1.36,3.29c9.89,24.01,33.46,40.13,58.66,40.13,34.94,0,63.36-28.59,63.36-63.74h0s140.73-.02,140.73-.02Zm-146.3,113.17c38.61-19.88,133.61-103.61,143.9-112.72l-137.41.02c-.25,35.44-28.98,64.19-64.27,64.19-24.42,0-47.34-14.93-58.08-37.49,4.8,26.41,23.27,53.52,46.84,68.33,20.53,13.06,43.75,19,69.02,17.66Z"/></g></g><g class="cls-3"><path class="cls-1" d="m354.92,147.69c16.14-17.98,37.25-30.07,62.1-35.59,27.84-6.35,61.19-.57,84.02,16.77,7.47,3.11,14.46,7.68,20.53,13.75l44.81-44.81c-49.59-49.59-130.29-49.59-179.88,0-14.74,14.74-25.6,31.28-31.58,49.87Z"/><path d="m353.83,149.58l.66-2.04c6.23-19.38,17.23-35.59,31.69-50.06,49.77-49.77,130.75-49.77,180.52,0l.32.32-45.45,45.45-.32-.32c-5.87-5.87-12.73-10.46-20.38-13.65l-.1-.06c-22-16.71-54.83-23.26-83.64-16.69-23.78,5.28-44.93,16.59-61.86,35.45l-1.43,1.59Zm211.9-51.77c-49.44-49.09-129.6-48.98-178.91.32-13.85,13.85-24.54,29.25-30.8,47.66,16.79-18.11,37.6-28.97,60.9-34.15,29.04-6.62,62.14-.02,84.35,16.82,7.6,3.18,14.43,7.72,20.3,13.5l44.16-44.16Z"/><path class="cls-1" d="m597.43,226.89c-16.14,17.98-36.74,31.01-61.59,36.53-27.84,6.35-61.19.57-84.02-16.77-7.47-3.11-14.83-8.04-20.89-14.1l-98.31,98.41s184.16-3.66,233.75-53.25c14.74-14.74,25.09-32.22,31.07-50.82Z"/><path d="m331.79,331.79l.79-.79,98.63-98.73.03-.03c5.93,5.93,13.3,10.9,20.75,14.01l.1.06c22,16.71,54.83,23.26,83.65,16.69,23.77-5.28,44.42-17.52,61.35-36.39l1.43-1.59-.66,2.04c-6.23,19.38-16.72,36.53-31.18,51-25.71,25.71-88,38.85-135.73,45.35-51.67,7.04-97.78,8.4-98.24,8.41h-.92Zm99.14-98.59l-97.18,97.28c15.62-.43,185.43-6.22,232.29-53.09,13.85-13.85,24.04-30.2,30.29-48.6-16.79,18.11-37.1,29.91-60.39,35.08-29.05,6.62-62.15.02-84.35-16.82-7.4-3.1-14.72-8-20.67-13.86Z"/><g class="cls-3"><path class="cls-1" d="m522.03,232.43c-18.73,18.73-47.04,23.86-70.17,14.18,22.82,17.36,55.85,23.43,84.41,16.82,24.71-5.72,45.17-18.77,61.22-36.66,13.99-43.84,3.76-94.1-31.1-128.96l-44.81,44.81c24.89,24.89,25.21,65.05.45,89.81Z"/><path d="m448.73,244.81l3.3,1.38c23.44,9.81,51.44,4.15,69.67-14.09,24.46-24.46,24.26-64.46-.45-89.17l-.32-.32,45.45-45.45.32.32c16.83,16.83,28.51,38.12,33.78,61.58,5.09,22.64,4.48,45.77-2.57,67.84l-.1.17c-16.66,18.56-37.62,31.28-61.46,36.8-29.13,6.75-62.41.12-84.79-16.9l-2.85-2.16Zm73.49-102.2c24.74,25.09,24.84,65.43.13,90.14-17.65,17.65-44.34,23.68-67.41,15.54,22.08,15.34,53.54,21.11,81.22,14.69,23.62-5.47,44.4-18.07,60.92-36.45,6.97-21.89,7.56-44.82,2.51-67.27-5.2-23.14-16.68-44.16-33.21-60.82l-44.16,44.16Z"/></g><g class="cls-2"><path class="cls-1" d="m430.69,142.07c18.82-18.82,47.19-22.85,70.36-13.2-22.84-17.34-56.8-23.67-84.64-17.32-24.85,5.52-45.45,18.55-61.59,36.53-14.14,43.99-22.18,182.86-22.18,182.86l98.32-98.36c-24.89-24.89-25.15-65.63-.27-90.52Z"/><path d="m331.79,331.79l.06-1.03c.08-1.39,8.54-139.28,22.53-182.82l.09-.16c17.06-19.01,37.87-31.34,61.84-36.67,28.56-6.52,62.73.48,85.02,17.41l2.84,2.15-3.29-1.37c-23.97-9.98-52.04-4.72-69.86,13.1-24.7,24.7-24.58,65.02.27,89.87h0s-99.49,99.53-99.49,99.53Zm23.43-183.48c-13.24,41.36-21.22,167.74-22.05,181.46l97.15-97.18c-24.89-25.23-24.9-65.89.06-90.84,17.27-17.27,44.03-22.92,67.58-14.56-22.07-15.28-54.3-21.39-81.44-15.2-23.75,5.28-44.37,17.5-61.29,36.32Z"/></g></g><g class="cls-3"><path class="cls-1" d="m308.65,515.89c-16.14,17.98-37.25,30.07-62.1,35.59-27.84,6.35-61.19.57-84.02-16.77-7.47-3.11-14.46-7.68-20.53-13.75l-44.81,44.81c49.59,49.59,130.29,49.59,179.88,0,14.74-14.74,25.6-31.28,31.58-49.87Z"/><path d="m309.74,513.99l-.66,2.04c-6.23,19.38-17.23,35.59-31.69,50.06-49.77,49.77-130.75,49.77-180.52,0l-.32-.32,45.45-45.45.32.32c5.87,5.87,12.73,10.46,20.38,13.65l.1.06c22,16.71,54.83,23.26,83.64,16.69,23.78-5.28,44.93-16.59,61.86-35.45l1.43-1.59Zm-211.9,51.77c49.44,49.09,129.6,48.98,178.91-.32,13.85-13.85,24.54-29.25,30.8-47.66-16.79,18.11-37.6,28.97-60.9,34.15-29.04,6.62-62.14.02-84.35-16.82-7.6-3.18-14.43-7.72-20.3-13.5l-44.16,44.16Z"/><path class="cls-1" d="m66.14,436.68c16.14-17.98,36.74-31.01,61.59-36.53,27.84-6.35,61.19-.57,84.02,16.77,7.47,3.11,14.83,8.04,20.89,14.1l98.31-98.41s-184.16,3.66-233.75,53.25c-14.74,14.74-25.09,32.22-31.07,50.82Z"/><path d="m331.79,331.79l-.79.79-98.63,98.73-.03.03c-5.93-5.93-13.3-10.9-20.75-14.01l-.1-.06c-22-16.71-54.83-23.26-83.65-16.69-23.77,5.28-44.42,17.52-61.35,36.39l-1.43,1.59.66-2.04c6.23-19.38,16.72-36.53,31.18-51,25.71-25.71,88-38.85,135.73-45.35,51.67-7.04,97.78-8.4,98.24-8.41h.92Zm-99.14,98.59l97.18-97.28c-15.62.43-185.43,6.22-232.29,53.09-13.85,13.85-24.04,30.2-30.29,48.6,16.79-18.11,37.1-29.91,60.39-35.08,29.05-6.62,62.15-.02,84.35,16.82,7.4,3.1,14.72,8,20.67,13.86Z"/><g class="cls-3"><path class="cls-1" d="m141.55,431.14c18.73-18.73,47.04-23.86,70.17-14.18-22.82-17.36-55.85-23.43-84.41-16.82-24.71,5.72-45.17,18.77-61.22,36.66-13.99,43.84-3.76,94.1,31.1,128.96l44.81-44.81c-24.89-24.89-25.21-65.05-.45-89.81Z"/><path d="m214.84,418.76l-3.3-1.38c-23.44-9.81-51.44-4.15-69.67,14.09-24.46,24.46-24.26,64.46.45,89.17l.32.32-45.45,45.45-.32-.32c-16.83-16.83-28.51-38.12-33.78-61.58-5.09-22.64-4.48-45.77,2.57-67.84l.1-.17c16.66-18.56,37.62-31.28,61.46-36.8,29.13-6.75,62.41-.12,84.79,16.9l2.85,2.16Zm-73.49,102.2c-24.74-25.09-24.84-65.43-.13-90.14,17.65-17.65,44.34-23.68,67.41-15.54-22.08-15.34-53.54-21.11-81.22-14.69-23.62,5.47-44.4,18.07-60.92,36.45-6.97,21.89-7.56,44.82-2.51,67.27,5.2,23.14,16.68,44.16,33.21,60.82l44.16-44.16Z"/></g><g class="cls-2"><path class="cls-1" d="m232.88,521.51c-18.82,18.82-47.19,22.85-70.36,13.2,22.84,17.34,56.8,23.67,84.64,17.32,24.85-5.52,45.45-18.55,61.59-36.53,14.14-43.99,22.18-182.86,22.18-182.86l-98.32,98.36c24.89,24.89,25.15,65.63.27,90.52Z"/><path d="m331.79,331.79l-.06,1.03c-.08,1.39-8.54,139.28-22.53,182.82l-.09.16c-17.06,19.01-37.87,31.34-61.84,36.67-28.56,6.52-62.73-.48-85.02-17.41l-2.84-2.15,3.29,1.37c23.97,9.98,52.04,4.72,69.86-13.1,24.7-24.7,24.58-65.02-.27-89.87h0s99.49-99.53,99.49-99.53Zm-23.43,183.48c13.24-41.36,21.22-167.74,22.05-181.46l-97.15,97.18c24.89,25.23,24.9,65.89-.06,90.84-17.27,17.27-44.03,22.92-67.58,14.56,22.07,15.28,54.3,21.39,81.44,15.2,23.75-5.28,44.37-17.5,61.29-36.32Z"/></g></g><g class="cls-3"><path class="cls-1" d="m515.89,354.92c17.98,16.14,30.07,37.25,35.59,62.1,6.35,27.84.57,61.19-16.77,84.02-3.11,7.47-7.68,14.46-13.75,20.53l44.81,44.81c49.59-49.59,49.59-130.29,0-179.88-14.74-14.74-31.28-25.6-49.87-31.58Z"/><path d="m513.99,353.83l2.04.66c19.38,6.23,35.59,17.23,50.06,31.69,49.77,49.77,49.77,130.75,0,180.52l-.32.32-45.45-45.45.32-.32c5.87-5.87,10.46-12.73,13.65-20.38l.06-.1c16.71-22,23.26-54.83,16.69-83.64-5.28-23.78-16.59-44.93-35.45-61.86l-1.59-1.43Zm51.77,211.9c49.09-49.44,48.98-129.6-.32-178.91-13.85-13.85-29.25-24.54-47.66-30.8,18.11,16.79,28.97,37.6,34.15,60.9,6.62,29.04.02,62.14-16.82,84.35-3.18,7.6-7.72,14.43-13.5,20.3l44.16,44.16Z"/><path class="cls-1" d="m436.68,597.43c-17.98-16.14-31.01-36.74-36.53-61.59-6.35-27.84-.57-61.19,16.77-84.02,3.11-7.47,8.04-14.83,14.1-20.89l-98.41-98.31s3.66,184.16,53.25,233.75c14.74,14.74,32.22,25.09,50.82,31.07Z"/><path d="m331.79,331.79l.79.79,98.73,98.63.03.03c-5.93,5.93-10.9,13.3-14.01,20.75l-.06.1c-16.71,22-23.26,54.83-16.69,83.65,5.28,23.77,17.52,44.42,36.39,61.35l1.59,1.43-2.04-.66c-19.38-6.23-36.53-16.72-51-31.18-25.71-25.71-38.85-88-45.35-135.73-7.04-51.67-8.4-97.78-8.41-98.24v-.92Zm98.59,99.14l-97.28-97.18c.43,15.62,6.22,185.43,53.09,232.29,13.85,13.85,30.2,24.04,48.6,30.29-18.11-16.79-29.91-37.1-35.08-60.39-6.62-29.05-.02-62.15,16.82-84.35,3.1-7.4,8-14.72,13.86-20.67Z"/><g class="cls-3"><path class="cls-1" d="m431.14,522.03c-18.73-18.73-23.86-47.04-14.18-70.17-17.36,22.82-23.43,55.85-16.82,84.41,5.72,24.71,18.77,45.17,36.66,61.22,43.84,13.99,94.1,3.76,128.96-31.1l-44.81-44.81c-24.89,24.89-65.05,25.21-89.81.45Z"/><path d="m418.76,448.73l-1.38,3.3c-9.81,23.44-4.15,51.44,14.09,69.67,24.46,24.46,64.46,24.26,89.17-.45l.32-.32,45.45,45.45-.32.32c-16.83,16.83-38.12,28.51-61.58,33.78-22.64,5.09-45.77,4.48-67.84-2.57l-.17-.1c-18.56-16.66-31.28-37.62-36.8-61.46-6.75-29.13-.12-62.41,16.9-84.79l2.16-2.85Zm102.2,73.49c-25.09,24.74-65.43,24.84-90.14.13-17.65-17.65-23.68-44.34-15.54-67.41-15.34,22.08-21.11,53.54-14.69,81.22,5.47,23.62,18.07,44.4,36.45,60.92,21.89,6.97,44.82,7.56,67.27,2.51,23.14-5.2,44.16-16.68,60.82-33.21l-44.16-44.16Z"/></g><g class="cls-2"><path class="cls-1" d="m521.51,430.69c18.82,18.82,22.85,47.19,13.2,70.36,17.34-22.84,23.67-56.8,17.32-84.64-5.52-24.85-18.55-45.45-36.53-61.59-43.99-14.14-182.86-22.18-182.86-22.18l98.36,98.32c24.89-24.89,65.63-25.15,90.52-.27Z"/><path d="m331.79,331.79l1.03.06c1.39.08,139.28,8.54,182.82,22.53l.16.09c19.01,17.06,31.34,37.87,36.67,61.84,6.52,28.56-.48,62.73-17.41,85.02l-2.15,2.84,1.37-3.29c9.98-23.97,4.72-52.04-13.1-69.86-24.7-24.7-65.02-24.58-89.87.27h0s-99.53-99.49-99.53-99.49Zm183.48,23.43c-41.36-13.24-167.74-21.22-181.46-22.05l97.18,97.15c25.23-24.89,65.89-24.9,90.84.06,17.27,17.27,22.92,44.03,14.56,67.58,15.28-22.07,21.39-54.3,15.2-81.44-5.28-23.75-17.5-44.37-36.32-61.29Z"/></g></g><g class="cls-3"><path class="cls-1" d="m147.69,308.65c-17.98-16.14-30.07-37.25-35.59-62.1-6.35-27.84-.57-61.19,16.77-84.02,3.11-7.47,7.68-14.46,13.75-20.53l-44.81-44.81c-49.59,49.59-49.59,130.29,0,179.88,14.74,14.74,31.28,25.6,49.87,31.58Z"/><path d="m149.58,309.74l-2.04-.66c-19.38-6.23-35.59-17.23-50.06-31.69-49.77-49.77-49.77-130.75,0-180.52l.32-.32,45.45,45.45-.32.32c-5.87,5.87-10.46,12.73-13.65,20.38l-.06.1c-16.71,22-23.26,54.83-16.69,83.64,5.28,23.78,16.59,44.93,35.45,61.86l1.59,1.43Zm-51.77-211.9c-49.09,49.44-48.98,129.6.32,178.91,13.85,13.85,29.25,24.54,47.66,30.8-18.11-16.79-28.97-37.6-34.15-60.9-6.62-29.04-.02-62.14,16.82-84.35,3.18-7.6,7.72-14.43,13.5-20.3l-44.16-44.16Z"/><path class="cls-1" d="m226.89,66.14c17.98,16.14,31.01,36.74,36.53,61.59,6.35,27.84.57,61.19-16.77,84.02-3.11,7.47-8.04,14.83-14.1,20.89l98.41,98.31s-3.66-184.16-53.25-233.75c-14.74-14.74-32.22-25.09-50.82-31.07Z"/><path d="m331.79,331.79l-.79-.79-98.73-98.63-.03-.03c5.93-5.93,10.9-13.3,14.01-20.75l.06-.1c16.71-22,23.26-54.83,16.69-83.65-5.28-23.77-17.52-44.42-36.39-61.35l-1.59-1.43,2.04.66c19.38,6.23,36.53,16.72,51,31.18,25.71,25.71,38.85,88,45.35,135.73,7.04,51.67,8.4,97.78,8.41,98.24v.92Zm-98.59-99.14l97.28,97.18c-.43-15.62-6.22-185.43-53.09-232.29-13.85-13.85-30.2-24.04-48.6-30.29,18.11,16.79,29.91,37.1,35.08,60.39,6.62,29.05.02,62.15-16.82,84.35-3.1,7.4-8,14.72-13.86,20.67Z"/><g class="cls-3"><path class="cls-1" d="m232.43,141.55c18.73,18.73,23.86,47.04,14.18,70.17,17.36-22.82,23.43-55.85,16.82-84.41-5.72-24.71-18.77-45.17-36.66-61.22-43.84-13.99-94.1-3.76-128.96,31.1l44.81,44.81c24.89-24.89,65.05-25.21,89.81-.45Z"/><path d="m244.81,214.84l1.38-3.3c9.81-23.44,4.15-51.44-14.09-69.67-24.46-24.46-64.46-24.26-89.17.45l-.32.32-45.45-45.45.32-.32c16.83-16.83,38.12-28.51,61.58-33.78,22.64-5.09,45.77-4.48,67.84,2.57l.17.1c18.56,16.66,31.28,37.62,36.8,61.46,6.75,29.13.12,62.41-16.9,84.79l-2.16,2.85Zm-102.2-73.49c25.09-24.74,65.43-24.84,90.14-.13,17.65,17.65,23.68,44.34,15.54,67.41,15.34-22.08,21.11-53.54,14.69-81.22-5.47-23.62-18.07-44.4-36.45-60.92-21.89-6.97-44.82-7.56-67.27-2.51-23.14,5.2-44.16,16.68-60.82,33.21l44.16,44.16Z"/></g><g class="cls-2"><path class="cls-1" d="m142.07,232.88c-18.82-18.82-22.85-47.19-13.2-70.36-17.34,22.84-23.67,56.8-17.32,84.64,5.52,24.85,18.55,45.45,36.53,61.59,43.99,14.14,182.86,22.18,182.86,22.18l-98.36-98.32c-24.89,24.89-65.63,25.15-90.52.27Z"/><path d="m331.79,331.79l-1.03-.06c-1.39-.08-139.28-8.54-182.82-22.53l-.16-.09c-19.01-17.06-31.34-37.87-36.67-61.84-6.52-28.56.48-62.73,17.41-85.02l2.15-2.84-1.37,3.29c-9.98,23.97-4.72,52.04,13.1,69.86,24.7,24.7,65.02,24.58,89.87-.27h0s99.53,99.49,99.53,99.49Zm-183.48-23.43c41.36,13.24,167.74,21.22,181.46,22.05l-97.18-97.15c-25.23,24.89-65.89,24.9-90.84-.06-17.27-17.27-22.92-44.03-14.56-67.58-15.28,22.07-21.39,54.3-15.2,81.44,5.28,23.75,17.5,44.37,36.32,61.29Z"/></g></g></g></svg>