<?xml version="1.0" encoding="UTF-8"?><svg id="Main_Graphic" xmlns="http://www.w3.org/2000/svg" viewBox="0 0 461.73 355.28"><defs><style>.cls-1{fill:#8cc63f;}.cls-2{opacity:.8;}.cls-3{opacity:.7;}</style></defs><g id="GreenL"><g class="cls-3"><path class="cls-1" d="m203.93,18.64c33.57-1.81,66.24,7.07,96.13,26.09,33.64,21.15,60.77,59.65,66.18,99.19,4.29,10.41,6.67,21.79,6.67,33.73h88.18c0-97.6-79.41-177.01-177.01-177.01-29,0-55.97,5.58-80.15,18Z"/><path d="m200.99,19.43l2.65-1.36C228.84,5.13,255.62,0,284.09,0c97.95,0,177.64,79.69,177.64,177.64v.64h-89.45v-.64c0-11.55-2.23-22.82-6.62-33.49l-.04-.16c-5.2-38.09-31.06-76.85-65.88-98.73-28.6-18.2-60.53-27.89-95.76-25.99l-2.97.16Zm259.47,157.58C460.11,80.05,381.13,1.27,284.09,1.27c-27.27,0-52.94,4.64-77.21,16.6,34.34-1.3,65.51,8.5,93.53,26.32,35.1,22.06,61.17,61.13,66.45,99.55,4.35,10.61,6.6,21.8,6.69,33.26h86.91Z"/><path class="cls-1" d="m364.62,335.22c-33.58,1.81-66.67-5.64-96.56-24.66-33.64-21.15-60.77-59.65-66.18-99.19-4.29-10.41-6.68-22.5-6.68-34.44l-193.58.1s184.81,177.62,282.42,177.62c29,0,56.4-7.01,80.58-19.43Z"/><path d="m0,177.03h1.56s194.21-.1,194.21-.1h.07c0,11.67,2.36,23.82,6.63,34.2l.04.16c5.2,38.09,31.06,76.84,65.89,98.73,28.59,18.2,60.95,26.46,96.18,24.57l2.97-.16-2.65,1.36c-25.2,12.94-52.4,19.5-80.87,19.5-50.6,0-124.83-48.37-178.19-88.94C48.08,222.43,1.36,178.39.9,177.95L0,177.03Zm194.57.54l-191.35.1c15.79,14.94,188.58,176.35,280.82,176.35,27.27,0,53.37-6.06,77.63-18.02-34.34,1.3-65.94-7.07-93.95-24.9-35.1-22.06-61.18-61.14-66.46-99.55-4.24-10.33-6.61-22.37-6.7-33.97Z"/><g class="cls-3"><path class="cls-1" d="m284.98,266.47c-36.85,0-69.77-22.8-83.01-55.09,5.38,39.54,31.89,78.02,66.51,99.61,29.95,18.68,62.91,25.97,96.32,24.16,56.91-29.37,96.3-88.9,96.3-157.5h-88.18c0,48.98-39.2,88.82-87.93,88.82Z"/><path d="m200.66,206.53l1.89,4.6c13.42,32.72,46.54,54.7,82.42,54.7,48.14,0,87.3-39.56,87.3-88.19v-.64h89.45v.64c0,33.12-9.46,65.57-27.36,93.84-17.28,27.29-40.63,49.45-69.28,64.23l-.26.07c-34.66,1.87-67.79-6.24-96.69-24.26-35.31-22.02-61.53-61.3-66.81-100.06l-.67-4.93Zm172.88-28.25c-.34,49.04-39.94,88.82-88.57,88.82-34.74,0-66.93-20.33-81.62-51.04,6.63,36.82,31.91,73.45,65.46,94.38,28.63,17.86,61.47,25.91,95.81,24.08,28.39-14.68,51.54-36.66,68.67-63.72,17.66-27.89,27.04-59.87,27.17-92.52h-86.91Z"/></g><g class="cls-2"><path class="cls-1" d="m284.02,87.67c37.04,0,68.91,23.95,82.22,56.25-5.4-39.54-32.6-79.19-66.25-100.34-29.89-19.02-62.98-26.47-96.56-24.66C146.23,48.28,1.67,177.03,1.67,177.03l193.54-.03c0-48.98,39.83-89.33,88.81-89.33Z"/><path d="m0,177.03l1.07-.96c1.44-1.29,145.46-128.66,202.08-157.73l.25-.07c35.49-1.92,68.11,6.42,96.94,24.76,34.52,21.7,61.26,62.2,66.53,100.79l.67,4.91-1.89-4.58c-13.77-33.41-46.57-55.85-81.63-55.85-48.62,0-88.17,39.79-88.17,88.7h0s-195.84.03-195.84.03ZM203.6,19.54C149.87,47.2,17.66,163.72,3.34,176.4l191.23-.03c.34-49.32,40.33-89.34,89.44-89.34,33.98,0,65.88,20.78,80.83,52.17-6.68-36.76-32.39-74.48-65.19-95.09-28.57-18.18-60.88-26.45-96.05-24.58Z"/></g></g></g></svg>